<svg xmlns="http://www.w3.org/2000/svg" fill="aqua" viewBox="0 0 48 48" width="48px" height="48px" baseProfile="basic"><path d="M42,27h-2v1.815c-0.248,0.703-0.874,1.719-1.224,2.281c-1.144,1.836-3.114,2.847-5.549,2.847	c-2.388,0-4.633-0.697-7.067-2.194c-2.237-1.37-4.884-1.808-7.247-1.206c-1.812,0.461-3.242,1.467-4.021,2.816	c-0.292,0.487-0.489,1.064-0.631,1.64H14v2c0,2.812,2.173,5.296,4.327,6.512C20.102,44.527,21.904,45,24,45	c4.993,0,11.796-1.384,15.852-7.976c1.78-2.892,2.083-5.791,2.148-7.994c0-0.01-0.005-0.019-0.005-0.03H42V27z"/><path d="M22.642,16c-0.126-0.368-0.268-0.722-0.421-1.055c-0.644-1.382-1.852-2.408-3.494-2.964c-2.154-0.73-4.74-0.535-6.744,0.511	c-0.001,0-0.002,0.001-0.003,0.001C8.283,14.437,5.665,18.916,5.113,24H5v2c0,3.275,0.653,6.114,1.936,8.424	c1.599,2.992,3.301,4.97,5.519,6.414C12.622,40.947,12.812,41,12.999,41c0.294,0,0.583-0.128,0.779-0.372	c0.149-0.184,0.214-0.407,0.213-0.628H14v-2h-1.125c-0.013-0.023-0.025-0.045-0.038-0.069c-0.144-0.266-0.293-0.54-0.445-0.799	c-1.23-2.182-1.227-4.758,0.011-7.068c1.295-2.425,3.785-3.749,5.604-4.715C21.319,23.586,23,21.113,23,18v-2H22.642z"/><path d="M41.796,20C40.426,12.543,31.65,7,23.974,7c-2.211,0.058-3.201,0.283-5.055,0.931C18.609,8.04,18.297,8.182,18,8.332V8h-2v2	h0.005c0,0.114,0.014,0.229,0.055,0.342c0.178,0.489,0.699,0.762,1.202,0.623c0.802-0.218,1.597-0.339,2.263-0.34	c2.629-0.063,4.741,1.048,6.104,3.232c1.459,2.296,1.655,4.97,1.655,7.282c0,5.423,2.729,8.661,7.299,8.661	C38.742,29.8,42,26.374,42,22v-2H41.796z"/><path fill="#fff" d="M18.822,40.643C16.776,39.489,15,37.251,15,35c0-1,0.253-2.296,0.75-3.125	c1.486-2.577,6.004-3.649,9.888-1.272c2.091,1.286,4.569,2.341,7.589,2.341c2.789,0,5.06-1.17,6.398-3.319	C40.183,28.729,40.767,27.755,41,27c-0.078,2.642-0.517,5.09-2,7.5c-3.472,5.642-9.321,7.5-15,7.5	C22,42,20.354,41.521,18.822,40.643z"/><path fill="#fff" d="M12.446,11.378c2.931-1.53,7.48-0.992,8.869,1.989C21.684,14.168,22,15,22,16	c0,2.194-0.943,4.593-4.464,6.467c-2.16,1.147-4.627,2.525-6.016,5.127c-1.311,2.447-1.467,5.429,0,8.03	C12.06,36.541,12.461,37.465,13,38c-2.236-1.455-3.794-3.448-5.183-6.047C6.572,29.708,6,27,6,24	C6,18.829,8.33,13.543,12.446,11.378z"/><path fill="#fff" d="M41,20c0,4-3.03,6.8-6.416,6.8c-3.149,0-6.299-1.778-6.299-7.661c0-2.476-0.237-5.34-1.811-7.818	c-1.495-2.397-3.901-3.773-6.974-3.695C18.653,7.626,17.747,7.796,17,8c0.52-0.239,1.427-0.836,2.25-1.125	C21.054,6.244,21.945,6.054,24,6C31.718,6,41,12,41,20z"/><path d="M24,43c-2.096,0-3.898-0.473-5.673-1.488C16.173,40.296,14,37.812,14,35c0-0.993,0.233-2.542,0.893-3.64	c0.778-1.35,2.209-2.355,4.021-2.816c2.363-0.602,5.01-0.164,7.247,1.206c2.435,1.498,4.68,2.194,7.067,2.194	c2.435,0,4.405-1.011,5.549-2.847c0.367-0.59,1.051-1.689,1.269-2.392c0.147-0.478,0.625-0.774,1.119-0.691	c0.493,0.082,0.851,0.516,0.836,1.016c-0.065,2.203-0.368,5.103-2.148,7.994C35.796,41.616,28.993,43,24,43z M21.06,30.279	c-0.563,0-1.117,0.067-1.653,0.203c-1.266,0.322-2.282,1.012-2.79,1.893C16.25,32.986,16,34.059,16,35	c0,1.71,1.362,3.672,3.313,4.772c0.002,0.001,0.004,0.002,0.006,0.003C20.778,40.611,22.266,41,24,41	c4.482,0,10.576-1.219,14.148-7.024c0.451-0.733,0.811-1.484,1.09-2.29c-1.523,1.468-3.598,2.257-6.011,2.257	c-2.773,0-5.352-0.791-8.113-2.49C23.852,30.682,22.436,30.279,21.06,30.279z"/><path d="M12.999,39c-0.188,0-0.377-0.053-0.545-0.162c-2.218-1.444-3.92-3.422-5.519-6.414C5.653,30.114,5,27.275,5,24	c0-5.883,2.805-11.311,6.979-13.507c0.001,0,0.002-0.001,0.003-0.001c2.004-1.046,4.59-1.24,6.744-0.511	c1.643,0.557,2.851,1.582,3.494,2.964C22.626,13.824,23,14.8,23,16c0,3.113-1.681,5.586-4.994,7.35	c-1.818,0.966-4.309,2.29-5.604,4.715c-1.237,2.31-1.241,4.886-0.011,7.068c0.152,0.259,0.302,0.533,0.445,0.799	c0.303,0.556,0.588,1.082,0.867,1.359c0.364,0.361,0.396,0.939,0.074,1.338C13.582,38.872,13.293,39,12.999,39z M12.909,12.264	C9.374,14.125,7,18.84,7,24c0,2.932,0.569,5.444,1.691,7.467c0.295,0.551,0.591,1.063,0.894,1.538	c-0.294-1.969,0.059-4.026,1.054-5.884c1.581-2.962,4.383-4.451,6.428-5.538C19.713,20.175,21,18.349,21,16	c0-0.769-0.237-1.441-0.594-2.214c-0.514-1.103-1.546-1.648-2.321-1.911C16.453,11.322,14.422,11.475,12.909,12.264z"/><path d="M34.584,27.8c-4.57,0-7.299-3.238-7.299-8.661c0-2.313-0.196-4.986-1.655-7.282c-1.363-2.184-3.476-3.3-6.104-3.232	c-0.666,0.001-1.461,0.122-2.263,0.34c-0.503,0.138-1.024-0.134-1.202-0.623s0.049-1.033,0.521-1.25	c0.164-0.076,0.371-0.192,0.604-0.322c0.498-0.278,1.119-0.624,1.733-0.839C20.772,5.283,21.763,5.058,23.974,5	C32.324,5,42,11.552,42,20C42,24.374,38.742,27.8,34.584,27.8z M22.674,7.071c1.907,0.626,3.508,1.892,4.648,3.72	c1.739,2.737,1.963,5.899,1.963,8.348c0,5.505,2.882,6.661,5.299,6.661C37.246,25.8,40,23.63,40,20c0-7.321-8.601-13-16-13	C23.491,7.013,23.061,7.036,22.674,7.071z"/></svg>